# xmcd
#
# Track frame offsets:
#	150
#	22615
#	45089
#	62297
#	82189
#	102264
#	123656
#	147479
#	168979
#	188387
#
# Disc length: 2771 seconds
#
# Revision: 0
# Processed by: cddbd v1.5.2PL0 Copyright (c) Steve Scherf et al.
# Submitted via: EasyCDDAExtractor 16.0.9.1
#
DISCID=720ad10a
DTITLE=Various Artist - MEGAMIX Ma Nữ Đa Tình 3
DYEAR=1997
DGENRE=Pop
TTITLE0=Thảo Sương, Ngọc Hân, Thúy Hương, Ngọc Anh, Thúy Vi - Chúc Tết
TTITLE1=Ngọc Hân and Ngọc Anh - Đan Áo Mùa Xuân
TTITLE2=Thúy Hương and Thảo Sương - Xuân Họp Mặt
TTITLE3=Ngọc Hân and Thảo Sương - Đám Cưới Đầu Xuân
TTITLE4=Thúy Vi and Ngọc Anh - Xuân Này Con Không Về
TTITLE5=Ngọc Anh - Điệp Khúc Mùa Xuân
TTITLE6=Thảo Sương, Ngọc Hân, Thúy Hương, Ngọc Anh, Thúy Vi - Ly Rượu Mừng
TTITLE7=Thanh Uyên - Xuân Yêu Thương
TTITLE8=Thúy Hương and Thúy Vi - Tuổi Mừng Xuân
TTITLE9=Ngọc Hân - Câu Chuyện Đầu Năm
EXTD=
EXTT0=
EXTT1=
EXTT2=
EXTT3=
EXTT4=
EXTT5=
EXTT6=
EXTT7=
EXTT8=
EXTT9=
PLAYORDER=
